<mxfile host="app.diagrams.net" modified="2023-05-18T18:08:10.912Z" agent="Mozilla/5.0 (Windows NT 10.0; Win64; x64) AppleWebKit/537.36 (KHTML, like Gecko) Chrome/113.0.0.0 Safari/537.36" etag="8GNqbPsxfKzjJP5qhp3U" version="21.3.2" type="device">
  <diagram name="Page-1" id="tp68u8XpQMBsmzyWQ4LU">
    <mxGraphModel dx="1035" dy="532" grid="1" gridSize="10" guides="1" tooltips="1" connect="1" arrows="1" fold="1" page="1" pageScale="1" pageWidth="827" pageHeight="1169" math="0" shadow="0">
      <root>
        <mxCell id="0" />
        <mxCell id="1" parent="0" />
        <mxCell id="oTTG71QW5e4SJdv0nGdC-1" value="" style="rounded=0;whiteSpace=wrap;html=1;fillColor=#d5e8d4;strokeColor=#82b366;" parent="1" vertex="1">
          <mxGeometry x="154" y="120" width="566" height="490" as="geometry" />
        </mxCell>
        <mxCell id="oTTG71QW5e4SJdv0nGdC-2" value="" style="rounded=0;whiteSpace=wrap;html=1;fillColor=#dae8fc;strokeColor=#6c8ebf;" parent="1" vertex="1">
          <mxGeometry x="167" y="140" width="540" height="60" as="geometry" />
        </mxCell>
        <mxCell id="oTTG71QW5e4SJdv0nGdC-3" value="Navigation" style="text;html=1;strokeColor=#6c8ebf;fillColor=#dae8fc;align=center;verticalAlign=middle;whiteSpace=wrap;rounded=0;" parent="1" vertex="1">
          <mxGeometry x="180" y="155" width="60" height="30" as="geometry" />
        </mxCell>
        <mxCell id="oTTG71QW5e4SJdv0nGdC-4" value="CardSamuary" style="text;html=1;strokeColor=#d6b656;fillColor=#fff2cc;align=center;verticalAlign=middle;whiteSpace=wrap;rounded=0;" parent="1" vertex="1">
          <mxGeometry x="420" y="155" width="90" height="30" as="geometry" />
        </mxCell>
        <mxCell id="oTTG71QW5e4SJdv0nGdC-5" value="" style="rounded=0;whiteSpace=wrap;html=1;fillColor=#dae8fc;strokeColor=#6c8ebf;" parent="1" vertex="1">
          <mxGeometry x="167" y="220" width="163" height="370" as="geometry" />
        </mxCell>
        <mxCell id="oTTG71QW5e4SJdv0nGdC-6" value="Katogoriler" style="text;html=1;strokeColor=none;fillColor=none;align=center;verticalAlign=middle;whiteSpace=wrap;rounded=0;" parent="1" vertex="1">
          <mxGeometry x="218.5" y="340" width="60" height="30" as="geometry" />
        </mxCell>
        <mxCell id="oTTG71QW5e4SJdv0nGdC-7" value="" style="rounded=0;whiteSpace=wrap;html=1;fillColor=#e1d5e7;strokeColor=#9673a6;" parent="1" vertex="1">
          <mxGeometry x="340" y="220" width="360" height="370" as="geometry" />
        </mxCell>
        <mxCell id="oTTG71QW5e4SJdv0nGdC-8" value="Ürünler" style="text;html=1;strokeColor=none;fillColor=none;align=center;verticalAlign=middle;whiteSpace=wrap;rounded=0;" parent="1" vertex="1">
          <mxGeometry x="510" y="370" width="60" height="30" as="geometry" />
        </mxCell>
        <mxCell id="zXVqN9_3exNj7_VyYlwc-1" value="SignOut" style="text;html=1;align=center;verticalAlign=middle;whiteSpace=wrap;rounded=0;fillColor=#f5f5f5;fontColor=#333333;strokeColor=#666666;" vertex="1" parent="1">
          <mxGeometry x="523" y="155" width="90" height="30" as="geometry" />
        </mxCell>
        <mxCell id="zXVqN9_3exNj7_VyYlwc-2" value="SignIn" style="text;html=1;align=center;verticalAlign=middle;whiteSpace=wrap;rounded=0;fillColor=#f5f5f5;fontColor=#333333;strokeColor=#666666;" vertex="1" parent="1">
          <mxGeometry x="610" y="155" width="90" height="30" as="geometry" />
        </mxCell>
        <mxCell id="zXVqN9_3exNj7_VyYlwc-4" value="" style="endArrow=none;html=1;rounded=0;exitX=0.5;exitY=0;exitDx=0;exitDy=0;entryX=0.5;entryY=0;entryDx=0;entryDy=0;" edge="1" parent="1" source="zXVqN9_3exNj7_VyYlwc-5" target="zXVqN9_3exNj7_VyYlwc-2">
          <mxGeometry width="50" height="50" relative="1" as="geometry">
            <mxPoint x="550" y="40" as="sourcePoint" />
            <mxPoint x="660" y="60" as="targetPoint" />
            <Array as="points">
              <mxPoint x="568" y="60" />
              <mxPoint x="655" y="60" />
            </Array>
          </mxGeometry>
        </mxCell>
        <mxCell id="zXVqN9_3exNj7_VyYlwc-6" value="" style="endArrow=none;html=1;rounded=0;exitX=0.5;exitY=0;exitDx=0;exitDy=0;entryX=0.5;entryY=0;entryDx=0;entryDy=0;" edge="1" parent="1" source="zXVqN9_3exNj7_VyYlwc-1" target="zXVqN9_3exNj7_VyYlwc-5">
          <mxGeometry width="50" height="50" relative="1" as="geometry">
            <mxPoint x="568" y="155" as="sourcePoint" />
            <mxPoint x="655" y="155" as="targetPoint" />
            <Array as="points" />
          </mxGeometry>
        </mxCell>
        <mxCell id="zXVqN9_3exNj7_VyYlwc-5" value="handeSignIn" style="text;html=1;strokeColor=none;fillColor=none;align=center;verticalAlign=middle;whiteSpace=wrap;rounded=0;" vertex="1" parent="1">
          <mxGeometry x="538" y="70" width="60" height="30" as="geometry" />
        </mxCell>
        <mxCell id="zXVqN9_3exNj7_VyYlwc-7" value="handleSignOut" style="text;html=1;strokeColor=none;fillColor=none;align=center;verticalAlign=middle;whiteSpace=wrap;rounded=0;" vertex="1" parent="1">
          <mxGeometry x="613" y="80" width="60" height="30" as="geometry" />
        </mxCell>
        <mxCell id="zXVqN9_3exNj7_VyYlwc-10" value="&lt;h1&gt;useState&lt;/h1&gt;&lt;div&gt;state manager üst compenet olan Navide tanımlandı&lt;/div&gt;" style="text;html=1;strokeColor=none;fillColor=none;spacing=5;spacingTop=-20;whiteSpace=wrap;overflow=hidden;rounded=0;" vertex="1" parent="1">
          <mxGeometry x="180" y="10" width="190" height="80" as="geometry" />
        </mxCell>
        <mxCell id="zXVqN9_3exNj7_VyYlwc-11" value="Ürün Detayı" style="text;html=1;align=center;verticalAlign=middle;whiteSpace=wrap;rounded=0;fillColor=#f8cecc;strokeColor=#b85450;" vertex="1" parent="1">
          <mxGeometry x="350" y="230" width="340" height="90" as="geometry" />
        </mxCell>
        <mxCell id="zXVqN9_3exNj7_VyYlwc-12" value="" style="endArrow=none;html=1;rounded=0;entryX=1;entryY=0.5;entryDx=0;entryDy=0;exitX=1.011;exitY=0.305;exitDx=0;exitDy=0;exitPerimeter=0;" edge="1" parent="1" source="oTTG71QW5e4SJdv0nGdC-7" target="zXVqN9_3exNj7_VyYlwc-11">
          <mxGeometry width="50" height="50" relative="1" as="geometry">
            <mxPoint x="750" y="360" as="sourcePoint" />
            <mxPoint x="827" y="320" as="targetPoint" />
            <Array as="points">
              <mxPoint x="750" y="333" />
              <mxPoint x="750" y="275" />
            </Array>
          </mxGeometry>
        </mxCell>
        <mxCell id="zXVqN9_3exNj7_VyYlwc-13" value="/product/:id" style="text;html=1;strokeColor=none;fillColor=none;align=center;verticalAlign=middle;whiteSpace=wrap;rounded=0;" vertex="1" parent="1">
          <mxGeometry x="700" y="250" width="60" height="30" as="geometry" />
        </mxCell>
        <mxCell id="zXVqN9_3exNj7_VyYlwc-14" value="/" style="text;html=1;strokeColor=none;fillColor=none;align=center;verticalAlign=middle;whiteSpace=wrap;rounded=0;fontStyle=1" vertex="1" parent="1">
          <mxGeometry x="707" y="330" width="60" height="30" as="geometry" />
        </mxCell>
      </root>
    </mxGraphModel>
  </diagram>
</mxfile>
